PathFileType	4	(X/Y/Z)	C:/Users/beibeiliu/ov580/test_trc\sequence.8_training_dense_left.trc
DataRate	CameraRate	NumFrames	NumMarkers	Units	OrigDataRate	OrigDataStartFrame	OrigNumFrames
120	120	21	19	mm	120	188	375
Frame#	Time	ThumbCMC			ThumbMCP			ThumbIP			ThumbTip			IndexMCP			IndexPIP			IndexTip			MiddleMCP			MiddlePIP			MiddleTip			RingMCP			RingPIP			RingTip			PinkyMCP			PinkyPIP			PinkyTip			BackHand1			BackHand2			BackHand3	
		X0	Y0	Z0	X1	Y1	Z1	X2	Y2	Z2	X3	Y3	Z3	X4	Y4	Z4	X5	Y5	Z5	X6	Y6	Z6	X7	Y7	Z7	X8	Y8	Z8	X9	Y9	Z9	X10	Y10	Z10	X11	Y11	Z11	X12	Y12	Z12	X13	Y13	Z13	X14	Y14	Z14	X15	Y15	Z15	X16	Y16	Z16	X17	Y17	Z17	X18	Y18	Z18	
187	1.55833	-223.012	38.3503	-16.463	-213.175	41.7614	-39.7603	-202.385	51.9216	-59.2101	-194.715	59.5336	-71.6164	-248.132	52.1241	-76.09	-237.58	29.9136	-85.3349	-231.724	24.3511	-52.4267	-259.028	40.2809	-76.3661	-248.011	12.9469	-77.0359	-240.702	14.5768	-46.8806	-268.188	26.36	-69.8752	-251.56	7.98529	-63.2359	-248.86	12.2985	-37.07	-282.49	13.741	-59.2458	-262.651	-0.440657	-54.0308	-255.527	10.2256	-30.9842	-274.431	43.7004	-23.1208	-269.043	33.4786	2.95443	-252.771	51.6726	-11.8296	
188	1.56667	-221.638	39.4654	-18.9381	-210.904	42.6413	-43.4895	-203.501	51.4788	-62.6298	-197.269	57.6069	-77.9019	-248.198	52.4546	-77.4991	-238.256	28.5034	-86.8394	-233.633	22.4059	-55.2269	-264.904	39.3897	-74.1155	-248.368	13.3535	-78.9213	-239.888	17.9631	-44.8815	-273.112	23.9283	-69.7028	-255.047	4.218	-62.7343	-250.594	15.059	-36.385	-280.703	13.9949	-60.6376	-265.511	-1.08511	-54.7922	-257.779	7.15028	-31.7191	-280.418	44.0129	-23.2951	-267.203	34.6969	5.1672	-252.535	53.5463	-14.6099	
189	1.575	-222.243	38.9859	-22.4415	-216.198	39.9708	-46.9648	-204.017	46.5664	-65.3825	-195.972	53.5791	-82.2179	-246.709	53.2564	-78.3067	-238.523	25.7484	-87.8273	-231.356	21.0374	-58.6369	-263.471	38.8947	-77.3958	-251.662	10.6572	-79.738	-244.131	15.1434	-46.2438	-270.864	24.8245	-72.5501	-255.812	2.20007	-61.7038	-250.925	15.3136	-36.1011	-283.098	13.2169	-61.7444	-265.006	1.69468	-55.9129	-256.967	11.2764	-31.9787	-275.597	45.4007	-21.6888	-267.78	37.0227	4.07435	-248.652	52.1234	-16.3052	
190	1.58333	-219.317	38.5205	-25.68	-212.47	38.3828	-52.2615	-205.418	44.0035	-72.0202	-198.348	48.3405	-86.96	-247.8	49.9327	-80.0163	-244.227	23.3547	-88.4511	-234.163	20.3464	-57.8134	-263.584	36.3338	-80.2909	-248.825	8.62444	-79.4412	-244.843	12.7769	-48.1682	-276.816	22.8574	-70.1113	-256.685	4.14609	-65.5134	-253.325	12.2563	-37.1721	-285.395	17.3214	-59.2914	-265.387	1.05159	-55.7088	-256.028	12.753	-31.9289	-279.077	44.3661	-28.3782	-269.433	38.3923	-2.42413	-246.135	52.2997	-16.5852	
191	1.59167	-221.854	37.4886	-29.1707	-211.596	34.2671	-51.0779	-206.481	37.8963	-71.7488	-203.383	41.9393	-92.349	-246.76	46.0339	-84.464	-241.42	18.6843	-89.768	-236.513	16.6519	-60.3984	-263.025	35.1263	-82.454	-254.52	6.64819	-82.1713	-244.095	12.7645	-48.8538	-271.163	23.3316	-75.4125	-258.468	1.70826	-64.4261	-253.644	12.0959	-39.2306	-282.388	17.8095	-61.7713	-267.254	-0.0138188	-57.5244	-257.579	15.1729	-35.5145	-277.002	47.3214	-29.5483	-267.424	41.6286	-5.09699	-248.396	51.3879	-19.372	
192	1.6	-216.317	34.5085	-30.0789	-209.229	32.179	-55.9194	-208.045	34.6316	-77.4448	-200.306	34.9891	-98.3213	-244.894	43.6154	-89.4328	-245.003	17.9252	-91.8227	-233.148	16.3476	-61.239	-262.818	35.8962	-82.8718	-256.391	6.12581	-82.641	-245.44	9.16152	-51.8961	-274.522	22.0272	-75.0664	-259.408	0.732715	-66.2608	-250.218	14.8408	-42.0373	-287.328	16.998	-62.0989	-270.318	-0.969307	-57.8484	-258.268	11.3222	-35.362	-273.2	47.2279	-29.5427	-260.755	41.705	-3.92234	-244.046	52.0421	-23.0721	
193	1.60833	-214.763	32.0145	-30.1943	-211.832	26.0286	-56.8828	-208.06	28.603	-81.5667	-200.424	27.2385	-99.1785	-243.747	40.4837	-92.2803	-241.857	14.6445	-92.5785	-237.628	12.9359	-61.8901	-260.914	31.5092	-87.7941	-257.274	4.86284	-84.4173	-247.063	9.04085	-52.9084	-275.305	21.3061	-76.896	-260.285	1.41989	-67.2502	-252.627	10.2131	-44.2245	-284.576	22.4991	-63.5002	-271.289	0.216156	-58.5349	-258.736	15.4925	-35.5869	-273.035	49.4267	-34.8042	-264.041	45.2246	-5.56302	-240.188	52.7249	-26.9358	
194	1.61667	-217.334	28.788	-35.5229	-209.447	20.9985	-59.7913	-208.298	19.1876	-79.7207	-206.511	19.5814	-102.183	-243.308	37.8439	-92.4346	-243.117	9.64466	-91.3155	-235.532	8.53232	-65.6449	-258.983	32.1775	-88.5037	-256.836	2.14976	-82.9397	-248.38	7.48004	-54.145	-274.814	25.9316	-76.3785	-264.757	1.48101	-69.2766	-251.735	14.5269	-43.4693	-285.817	23.7613	-64.4372	-269.784	3.87593	-58.078	-258.048	17.7211	-39.463	-268.555	51.4316	-34.2541	-258.67	44.7893	-8.76476	-238.293	51.2152	-26.7055	
195	1.625	-215.038	22.1221	-34.2491	-210.927	13.7069	-58.9	-206.616	13.2102	-83.4846	-204.274	8.22239	-100.956	-238.399	36.4401	-93.3821	-245.323	6.39487	-92.4079	-237.291	7.70591	-65.2682	-258.486	30.5187	-90.8689	-261.543	2.70059	-86.068	-245.139	9.08246	-54.4567	-275.01	26.509	-76.9099	-267.268	1.58268	-68.9722	-253.642	11.1977	-45.5357	-283.26	24.5092	-66.6525	-272.333	5.52626	-61.8311	-256.86	20.1259	-42.7468	-262.497	54.4558	-38.1412	-253.838	47.9214	-14.3207	-234.27	51.4255	-33.786	
196	1.63333	-215.954	18.3945	-36.5827	-210.424	7.31638	-59.0061	-205.38	3.42475	-82.1244	-202.127	1.32801	-106.548	-233.645	31.3462	-96.3795	-245.424	6.67738	-96.3472	-239.342	5.94111	-65.498	-254.464	31.3413	-90.8332	-260.558	1.1535	-82.8643	-241.955	7.25414	-55.4257	-270.721	26.5866	-81.1262	-261.325	2.33946	-69.6414	-249.972	13.2364	-47.8079	-279.679	28.5247	-68.7816	-271.706	6.81906	-61.285	-257.394	19.2188	-42.1516	-258.077	54.9514	-40.5563	-250.382	49.7488	-14.0068	-225.649	45.7327	-33.0736	
197	1.64167	-210.076	12.8486	-38.3782	-209.336	0.97557	-59.4068	-206.102	-1.36357	-84.7691	-200.682	-7.78194	-103.888	-230.808	25.068	-99.3721	-244.486	1.19082	-93.5751	-236.529	1.48857	-67.1723	-252.566	29.0087	-92.3514	-256.369	0.0235751	-87.9013	-241.815	4.90218	-55.7538	-265.819	26.8559	-82.9707	-262.116	3.01697	-71.6824	-252.105	12.6579	-47.6634	-276.393	29.785	-71.2634	-271.331	8.5373	-61.3284	-255.125	15.8793	-43.408	-249.994	53.9017	-44.5925	-245.366	46.0675	-14.7326	-224.093	43.7522	-37.629	
198	1.65	-207.761	6.54391	-35.8904	-209.097	-2.72717	-60.7502	-203.935	-9.09296	-80.8655	-199.38	-13.2713	-102.877	-226.805	22.975	-97.0274	-239.888	-3.21356	-96.4654	-236.916	-0.711188	-66.3458	-250.309	23.6834	-94.9592	-258.235	-1.79204	-83.2857	-241.436	2.6303	-56.1692	-264.505	27.89	-82.6984	-264.544	2.31488	-68.9306	-248.599	9.48384	-49.443	-274.313	32.7109	-71.3485	-271.853	8.35616	-62.1338	-255.052	14.6535	-43.3155	-246.054	53.9817	-47.6442	-239.878	45.2875	-18.7655	-218.484	39.8564	-35.4388	
199	1.65833	-210.536	6.07198	-39.0033	-207.161	-5.94948	-62.7257	-201.047	-13.9073	-85.2519	-198.293	-20.1571	-99.4131	-227.723	18.5962	-99.9183	-240.901	-4.24494	-96.2083	-233.57	-5.33544	-66.3156	-244.251	20.7093	-96.445	-256.275	-2.32482	-86.8853	-244.832	0.406327	-56.5089	-258.938	25.1845	-84.8094	-261.219	1.7114	-72.4246	-247.664	10.1147	-48.3888	-273.323	27.432	-74.3126	-269.06	8.40265	-64.9098	-255.097	14.7293	-43.7788	-238.482	49.1043	-49.4325	-236.434	44.8921	-19.6227	-211.449	36.15	-40.8712	
200	1.66667	-207.102	1.31781	-39.5955	-204.471	-12.0537	-61.7906	-198.203	-21.9244	-81.8627	-196.065	-26.5304	-98.7273	-225.769	13.372	-101.059	-238.496	-9.10844	-97.4166	-231.381	-10.1332	-65.8978	-242.669	21.661	-94.0154	-252.732	-8.93132	-84.8253	-243.259	-0.241368	-56.309	-253.105	23.8068	-85.2334	-261.461	-0.0388351	-73.7845	-244.356	6.73893	-49.8035	-266.361	29.1963	-74.8447	-266.897	7.19242	-64.4237	-250.837	14.0472	-42.4563	-236.805	47.2958	-46.6844	-234.299	43.2218	-19.5873	-212.714	33.7409	-36.2074	
201	1.675	-204.352	-4.41011	-39.1521	-201.108	-21.7622	-56.0004	-196.864	-28.1991	-75.3949	-192.634	-36.6461	-91.9441	-221.52	9.07182	-98.2513	-239.037	-13.848	-93.0515	-232.23	-13.5246	-66.8791	-236.752	13.8385	-96.5711	-251.394	-11.1542	-83.4153	-240.578	-4.75329	-55.7208	-255.566	19.1369	-87.1563	-259.936	-2.99702	-69.6736	-243.62	6.53292	-47.3409	-265.302	25.6852	-76.7592	-265.076	3.49668	-61.5508	-249.25	11.8101	-45.0006	-232.247	45.0594	-52.029	-228.061	38.5994	-20.178	-207.869	28.7888	-36.7563	
202	1.68333	-203.587	-9.50224	-33.5736	-202.459	-21.4621	-58.6001	-195.545	-32.935	-75.0253	-188.328	-45.5775	-87.2868	-213.935	1.8109	-97.1948	-234.601	-20.9119	-94.1649	-231.54	-16.47	-66.0171	-231.277	9.37044	-95.6757	-248.045	-16.8695	-84.0517	-240.62	-7.02453	-55.7826	-246.339	13.728	-88.3	-254.696	-6.89967	-75.4083	-241.726	0.0652542	-50.8755	-260.25	20.104	-78.3981	-263.129	2.22266	-66.6102	-246.414	7.59695	-45.1851	-226.017	38.9781	-53.7025	-222.518	37.0313	-23.6567	-205.581	23.5777	-41.8418	
203	1.69167	-200.623	-13.8224	-35.2727	-198.434	-30.9081	-55.8501	-191.63	-42.1589	-72.2321	-187.346	-49.7527	-84.2939	-212.609	-3.16447	-97.0237	-230.819	-25.4339	-95.8309	-229.501	-20.7159	-64.5863	-228.165	4.78681	-94.7162	-245.491	-19.7054	-85.1424	-234.649	-13.5163	-56.6964	-245.416	12.3097	-87.3962	-251.397	-10.4205	-70.4715	-239.391	0.726127	-47.4651	-253.857	21.3558	-78.5173	-258.627	-0.973079	-65.6577	-243.747	3.87975	-48.4174	-223.898	37.0986	-54.399	-223.054	36.9174	-22.8376	-200.313	16.4644	-40.7595	
204	1.7	-201.919	-14.842	-32.7166	-197.645	-34.2176	-51.1948	-193.689	-44.8161	-65.0093	-183.4	-58.3411	-80.0218	-209.303	-14.3244	-97.3012	-231.95	-27.6469	-90.8643	-225.412	-23.1534	-61.1079	-227.406	0.167601	-94.6174	-245.306	-21.9748	-86.0424	-236.417	-13.063	-54.8791	-239.506	5.59074	-87.7788	-249.709	-13.8274	-69.7106	-239.541	-4.84661	-49.0392	-250.984	17.3878	-79.8883	-257.408	-3.69512	-66.5638	-243.72	1.87771	-45.373	-217.696	30.776	-53.0279	-217.89	30.29	-24.3884	-198.833	14.5671	-37.8328	
205	1.70833	-198.257	-22.1951	-29.9172	-198.567	-38.8932	-43.8877	-189.689	-52.0677	-62.974	-181.301	-66.2491	-69.1313	-205.105	-17.4478	-92.4922	-226.629	-37.7276	-88.429	-225.083	-28.9546	-59.9606	-221.483	-8.73379	-94.205	-244.191	-26.4797	-83.5789	-232.301	-16.9311	-53.1192	-240.919	-0.253764	-89.1238	-250.021	-17.7917	-68.9333	-235.099	-11.2406	-49.2806	-247.903	7.53618	-82.2544	-254.857	-7.83401	-66.4506	-239.109	-4.94362	-47.5969	-213.743	27.5803	-53.7268	-219.46	30.5665	-25.0339	-198.417	11.2982	-37.16	
206	1.71667	-199.031	-25.0608	-28.2512	-198.092	-43.608	-41.6187	-189.829	-57.4762	-56.3291	-177.081	-74.4754	-61.9825	-204.911	-23.618	-91.2085	-226.131	-43.3262	-84.4109	-222.585	-34.5907	-56.7575	-219.748	-17.2692	-92.7824	-242.504	-31.2896	-80.9834	-230.681	-23.9607	-52.8032	-235.926	-4.18661	-87.7832	-246.789	-23.9298	-70.0484	-234.154	-10.5214	-47.191	-243.932	6.64607	-80.6149	-251.265	-13.1374	-66.1759	-233.515	-6.40752	-45.741	-210.748	21.6935	-54.0831	-216.578	27.3552	-23.619	-195.153	3.49839	-38.0391	
207	1.725	-199.322	-27.5303	-22.4232	-197.336	-48.5587	-35.4494	-185.57	-64.1765	-47.9671	-176.883	-78.1146	-48.0583	-201.708	-33.8299	-88.7135	-222.326	-49.7399	-83.6845	-222.518	-40.4112	-56.4066	-218.132	-23.0075	-91.0778	-239.547	-38.3224	-80.3516	-230.094	-26.5865	-49.6779	-230.061	-14.5447	-86.4566	-247.221	-26.311	-70.3647	-233.399	-18.6493	-47.904	-244.705	0.284194	-81.5547	-252.709	-16.8009	-65.1241	-236.686	-7.17827	-44.7654	-209.213	16.0907	-52.2037	-212.05	22.9733	-26.1743	-195.334	0.524558	-32.2259	
